# Blender v2.82 (sub 7) OBJ File: 'WallE.blend'
# www.blender.org
mtllib upper_arm_right.mtl
o UpperArm_Cylinder
v -0.582814 -0.057839 -0.099553
v 0.582814 -0.060151 -0.103532
v -0.582814 -0.076557 -0.088046
v 0.582814 -0.076558 -0.088046
v -0.582814 -0.090022 -0.069178
v 0.582814 -0.090022 -0.069178
v -0.582814 -0.100027 -0.047650
v 0.582814 -0.100027 -0.047650
v -0.582814 -0.106188 -0.024292
v 0.582814 -0.106188 -0.024292
v -0.582814 -0.108269 -0.000000
v 0.582814 -0.108269 -0.000000
v -0.582814 -0.106188 0.024292
v 0.582814 -0.106188 0.024292
v -0.582814 -0.100027 0.047650
v 0.582814 -0.100027 0.047650
v -0.582814 -0.090022 0.069178
v 0.582814 -0.090022 0.069178
v -0.582814 -0.076557 0.088046
v 0.582814 -0.076558 0.088046
v -0.582814 -0.060151 0.103532
v 0.582814 -0.060151 0.103532
v -0.582814 -0.041433 0.115038
v 0.582814 -0.041433 0.115038
v -0.582814 -0.021122 0.122124
v 0.582814 -0.021122 0.122124
v -0.582814 0.000000 0.124516
v 0.582814 0.000000 0.124516
v -0.582814 0.021122 0.122124
v 0.582814 0.021122 0.122124
v -0.582814 0.041433 0.115038
v 0.582814 0.041433 0.115038
v -0.582814 0.060151 0.103532
v 0.582814 0.060151 0.103532
v -0.582814 0.076558 0.088046
v 0.582814 0.076558 0.088046
v -0.582814 0.090022 0.069178
v 0.582814 0.090022 0.069178
v -0.582814 0.100027 0.047650
v 0.582814 0.100027 0.047650
v -0.582814 0.106188 0.024292
v 0.582814 0.106188 0.024292
v -0.582814 0.108269 -0.000000
v 0.582814 0.108269 -0.000000
v -0.582814 0.106188 -0.024292
v 0.582814 0.106188 -0.024292
v -0.582814 0.100027 -0.047650
v 0.582814 0.100027 -0.047650
v -0.582814 -0.010411 0.034026
v -0.582814 -0.010624 0.034323
v -0.582814 -0.010781 0.034663
v -0.582814 -0.010879 0.035031
v -0.582814 -0.010911 0.035415
v -0.582814 -0.010879 0.035798
v -0.582814 -0.010781 0.036166
v -0.582814 -0.010624 0.036506
v -0.582814 -0.010411 0.036804
v -0.582814 -0.010152 0.037048
v -0.582814 -0.009857 0.037229
v -0.582814 -0.009537 0.037341
v -0.582814 -0.009203 0.037379
v -0.582814 -0.008870 0.037341
v -0.582814 -0.008550 0.037229
v -0.582814 -0.008255 0.037048
v -0.582814 -0.007996 0.036804
v -0.582814 -0.007783 0.036506
v -0.582814 -0.007625 0.036166
v -0.582814 -0.007528 0.035798
v -0.582814 -0.007495 0.035415
v -0.582814 -0.007528 0.035031
v -0.582814 -0.007625 0.034663
v -0.582814 -0.010116 0.033844
v 0.582814 -0.041866 -0.024017
v 0.582814 -0.033940 -0.031497
v 0.582814 -0.048370 -0.014902
v 0.582814 -0.053203 -0.004503
v 0.582814 -0.056179 0.006780
v 0.582814 -0.057184 0.018515
v 0.582814 -0.056179 0.030249
v 0.582814 -0.053203 0.041533
v 0.582814 -0.048370 0.051932
v 0.582814 -0.041866 0.061047
v 0.582814 -0.033940 0.068527
v 0.582814 -0.024898 0.074085
v 0.582814 -0.015087 0.077508
v 0.582814 -0.004884 0.078664
v 0.582814 0.005320 0.077508
v 0.582814 0.015131 0.074085
v 0.582814 0.024173 0.068527
v 0.582814 0.032098 0.061047
v 0.582814 0.038602 0.051932
v 0.582814 0.043436 0.041533
v 0.582814 0.046412 0.030249
v 0.582814 0.047417 0.018515
v 0.582814 0.046412 0.006780
v 0.582814 0.043436 -0.004503
vt 0.937500 0.500000
vt 0.906250 1.000000
vt 0.906250 0.500000
vt 0.875000 1.000000
vt 0.875000 0.500000
vt 0.843750 1.000000
vt 0.843750 0.500000
vt 0.812500 1.000000
vt 0.812500 0.500000
vt 0.781250 1.000000
vt 0.781250 0.500000
vt 0.750000 1.000000
vt 0.750000 0.500000
vt 0.718750 1.000000
vt 0.718750 0.500000
vt 0.687500 1.000000
vt 0.687500 0.500000
vt 0.656250 1.000000
vt 0.656250 0.500000
vt 0.625000 1.000000
vt 0.625000 0.500000
vt 0.593750 1.000000
vt 0.593750 0.500000
vt 0.562500 1.000000
vt 0.562500 0.500000
vt 0.531250 1.000000
vt 0.531250 0.500000
vt 0.500000 1.000000
vt 0.500000 0.500000
vt 0.468750 1.000000
vt 0.468750 0.500000
vt 0.437500 1.000000
vt 0.437500 0.500000
vt 0.406250 1.000000
vt 0.406250 0.500000
vt 0.375000 1.000000
vt 0.375000 0.500000
vt 0.343750 1.000000
vt 0.343750 0.500000
vt 0.312500 1.000000
vt 0.312500 0.500000
vt 0.281250 1.000000
vt 0.281250 0.500000
vt 0.250000 1.000000
vt 0.250000 0.500000
vt 0.218750 1.000000
vt 0.218750 0.500000
vt 0.187500 1.000000
vt 0.187500 0.500000
vt 0.093750 0.500000
vt 0.093750 1.000000
vt 0.062500 1.000000
vt 0.062500 0.500000
vt 0.843750 1.000000
vt 0.812500 1.000000
vt 0.718750 0.500000
vt 0.750000 0.500000
vt 0.841844 0.471731
vt 0.919706 0.419706
vt 0.949553 0.383337
vt 0.971731 0.341844
vt 0.985388 0.296822
vt 0.990000 0.250000
vt 0.985388 0.203178
vt 0.971731 0.158156
vt 0.949553 0.116663
vt 0.919706 0.080294
vt 0.883337 0.050447
vt 0.841844 0.028269
vt 0.796822 0.014612
vt 0.750000 0.010000
vt 0.703178 0.014612
vt 0.658156 0.028269
vt 0.616663 0.050447
vt 0.580294 0.080294
vt 0.550447 0.116663
vt 0.528269 0.158156
vt 0.514611 0.203179
vt 0.510000 0.250000
vt 0.514612 0.296822
vt 0.616663 0.449553
vt 0.562500 0.500000
vt 0.593750 0.500000
vt 0.406250 0.500000
vt 0.437500 0.500000
vt 0.250000 0.500000
vt 0.281250 0.500000
vt 0.781250 0.500000
vt 0.812500 0.500000
vt 0.625000 0.500000
vt 0.656250 0.500000
vt 0.468750 0.500000
vt 0.500000 0.500000
vt 0.312500 0.500000
vt 0.343750 0.500000
vt 0.843750 0.500000
vt 0.875000 0.500000
vt 0.687500 0.500000
vt 0.062500 0.500000
vt 0.093750 0.500000
vt 0.531250 0.500000
vt 0.375000 0.500000
vt 0.218750 0.500000
vt 0.906250 0.500000
vt 0.937500 0.500000
vt 0.187500 0.500000
vt 0.158156 0.471731
vt 0.028269 0.341844
vt 0.014612 0.296822
vt 0.010000 0.250000
vt 0.014611 0.203179
vt 0.028269 0.158156
vt 0.050447 0.116663
vt 0.080294 0.080294
vt 0.116663 0.050447
vt 0.158156 0.028269
vt 0.203178 0.014612
vt 0.250000 0.010000
vt 0.296822 0.014612
vt 0.341844 0.028269
vt 0.383337 0.050447
vt 0.419706 0.080294
vt 0.449553 0.116663
vt 0.471731 0.158156
vt 0.485388 0.203178
vt 0.490000 0.250000
vt 0.485388 0.296822
vt 0.471731 0.341844
vt 0.449553 0.383337
vt 0.419706 0.419706
vt 0.687500 1.000000
vt 0.656250 1.000000
vt 0.531250 1.000000
vt 0.500000 1.000000
vt 0.375000 1.000000
vt 0.343750 1.000000
vt 0.218750 1.000000
vt 0.187500 1.000000
vt 0.906250 1.000000
vt 0.875000 1.000000
vt 0.750000 1.000000
vt 0.718750 1.000000
vt 0.593750 1.000000
vt 0.562500 1.000000
vt 0.437500 1.000000
vt 0.406250 1.000000
vt 0.281250 1.000000
vt 0.250000 1.000000
vt 0.093750 1.000000
vt 0.062500 1.000000
vt 0.781250 1.000000
vt 0.625000 1.000000
vt 0.468750 1.000000
vt 0.312500 1.000000
vn -0.0039 -0.5237 -0.8519
vn -0.0000 -0.6864 -0.7272
vn -0.0000 -0.8140 -0.5809
vn -0.0000 -0.9068 -0.4215
vn -0.0000 -0.9669 -0.2550
vn -0.0000 -0.9964 -0.0853
vn -0.0000 -0.9964 0.0853
vn -0.0000 -0.9669 0.2550
vn -0.0000 -0.9068 0.4215
vn -0.0000 -0.8140 0.5809
vn -0.0000 -0.6864 0.7272
vn -0.0000 -0.5237 0.8519
vn -0.0000 -0.3294 0.9442
vn -0.0000 -0.1126 0.9936
vn -0.0000 0.1126 0.9936
vn 0.0000 0.3294 0.9442
vn 0.0000 0.5237 0.8519
vn 0.0000 0.6864 0.7272
vn 0.0000 0.8140 0.5809
vn 0.0000 0.9068 0.4215
vn 0.0000 0.9669 0.2550
vn 0.0000 0.9964 0.0853
vn 0.0000 0.9964 -0.0853
vn 0.0000 0.9669 -0.2550
vn -0.0013 0.3210 -0.9471
vn 1.0000 0.0000 0.0000
vn -1.0000 -0.0000 -0.0000
usemtl None
s off
f 1/1/1 2/2/1 3/3/1
f 3/3/2 2/2/2 4/4/2
f 3/5/3 4/4/3 6/6/3 5/7/3
f 5/7/4 6/6/4 8/8/4 7/9/4
f 7/9/5 8/8/5 10/10/5 9/11/5
f 9/11/6 10/10/6 12/12/6 11/13/6
f 11/13/7 12/12/7 14/14/7 13/15/7
f 13/15/8 14/14/8 16/16/8 15/17/8
f 15/17/9 16/16/9 18/18/9 17/19/9
f 17/19/10 18/18/10 20/20/10 19/21/10
f 19/21/11 20/20/11 22/22/11 21/23/11
f 21/23/12 22/22/12 24/24/12 23/25/12
f 23/25/13 24/24/13 26/26/13 25/27/13
f 25/27/14 26/26/14 28/28/14 27/29/14
f 27/29/15 28/28/15 30/30/15 29/31/15
f 29/31/16 30/30/16 32/32/16 31/33/16
f 31/33/17 32/32/17 34/34/17 33/35/17
f 33/35/18 34/34/18 36/36/18 35/37/18
f 35/37/19 36/36/19 38/38/19 37/39/19
f 37/39/20 38/38/20 40/40/20 39/41/20
f 39/41/21 40/40/21 42/42/21 41/43/21
f 41/43/22 42/42/22 44/44/22 43/45/22
f 43/45/23 44/44/23 46/46/23 45/47/23
f 45/47/24 46/46/24 48/48/24 47/49/24
f 47/50/25 48/51/25 2/52/25 1/53/25
f 8/8/26 6/6/26 75/54/26 76/55/26
f 11/13/27 13/15/27 54/56/27 53/57/27
f 72/58/27 49/59/27 50/60/27 51/61/27 52/62/27 53/63/27 54/64/27 55/65/27 56/66/27 57/67/27 58/68/27 59/69/27 60/70/27 61/71/27 62/72/27 63/73/27 64/74/27 65/75/27 66/76/27 67/77/27 68/78/27 69/79/27 70/80/27 71/81/27
f 21/23/27 23/25/27 59/82/27 58/83/27
f 31/33/27 33/35/27 64/84/27 63/85/27
f 41/43/27 43/45/27 69/86/27 68/87/27
f 7/9/27 9/11/27 52/88/27 51/89/27
f 17/19/27 19/21/27 57/90/27 56/91/27
f 27/29/27 29/31/27 62/92/27 61/93/27
f 37/39/27 39/41/27 67/94/27 66/95/27
f 3/5/27 5/7/27 50/96/27 49/97/27
f 13/15/27 15/17/27 55/98/27 54/56/27
f 47/50/27 1/53/27 72/99/27 71/100/27
f 23/25/27 25/27/27 60/101/27 59/82/27
f 33/35/27 35/37/27 65/102/27 64/84/27
f 43/45/27 45/47/27 70/103/27 69/86/27
f 9/11/27 11/13/27 53/57/27 52/88/27
f 19/21/27 21/23/27 58/83/27 57/90/27
f 29/31/27 31/33/27 63/85/27 62/92/27
f 39/41/27 41/43/27 68/87/27 67/94/27
f 5/7/27 7/9/27 51/89/27 50/96/27
f 15/17/27 17/19/27 56/91/27 55/98/27
f 1/1/27 3/3/27 49/104/27 72/105/27
f 25/27/27 27/29/27 61/93/27 60/101/27
f 35/37/27 37/39/27 66/95/27 65/102/27
f 45/47/27 47/49/27 71/106/27 70/103/27
f 74/107/26 96/108/26 95/109/26 94/110/26 93/111/26 92/112/26 91/113/26 90/114/26 89/115/26 88/116/26 87/117/26 86/118/26 85/119/26 84/120/26 83/121/26 82/122/26 81/123/26 80/124/26 79/125/26 78/126/26 77/127/26 76/128/26 75/129/26 73/130/26
f 18/18/26 16/16/26 80/131/26 81/132/26
f 28/28/26 26/26/26 85/133/26 86/134/26
f 38/38/26 36/36/26 90/135/26 91/136/26
f 48/48/26 46/46/26 95/137/26 96/138/26
f 4/4/26 2/2/26 74/139/26 73/140/26
f 14/14/26 12/12/26 78/141/26 79/142/26
f 24/24/26 22/22/26 83/143/26 84/144/26
f 34/34/26 32/32/26 88/145/26 89/146/26
f 44/44/26 42/42/26 93/147/26 94/148/26
f 2/52/26 48/51/26 96/149/26 74/150/26
f 10/10/26 8/8/26 76/55/26 77/151/26
f 20/20/26 18/18/26 81/132/26 82/152/26
f 30/30/26 28/28/26 86/134/26 87/153/26
f 40/40/26 38/38/26 91/136/26 92/154/26
f 6/6/26 4/4/26 73/140/26 75/54/26
f 16/16/26 14/14/26 79/142/26 80/131/26
f 26/26/26 24/24/26 84/144/26 85/133/26
f 36/36/26 34/34/26 89/146/26 90/135/26
f 46/46/26 44/44/26 94/148/26 95/137/26
f 12/12/26 10/10/26 77/151/26 78/141/26
f 22/22/26 20/20/26 82/152/26 83/143/26
f 32/32/26 30/30/26 87/153/26 88/145/26
f 42/42/26 40/40/26 92/154/26 93/147/26
