# Blender 3.1.0
# www.blender.org
mtllib neck.mtl
o Cube.001
v -0.212044 -0.069213 0.161557
v 0.115014 0.191115 0.161557
v -0.212044 -0.069213 -0.161557
v 0.115014 0.191115 -0.161557
v -0.115014 -0.191115 0.161557
v 0.212044 0.069213 0.161557
v -0.115014 -0.191115 -0.161557
v 0.212044 0.069213 -0.161557
v -0.329769 -0.235821 -0.161557
v -0.329769 -0.235821 0.161557
v -0.175758 -0.242122 -0.161557
v -0.175758 -0.242122 0.161557
v 0.115014 0.191115 0.161557
v 0.115014 0.191115 -0.161557
v 0.212044 0.069213 -0.161557
v 0.212044 0.069213 0.161557
v 0.244544 0.288752 0.161557
v 0.244544 0.288752 -0.161557
v 0.389279 0.233144 -0.161557
v 0.389279 0.233144 0.161557
v 0.278151 0.353411 0.161557
v 0.278151 0.353411 -0.161557
v 0.430535 0.373326 -0.161557
v 0.430535 0.373326 0.161557
v 0.264372 0.446939 0.161557
v 0.264372 0.446939 -0.161557
v 0.416755 0.466854 -0.161557
v 0.416755 0.466854 0.161557
v 0.261719 0.502006 0.161557
v 0.261719 0.502006 -0.161557
v 0.395062 0.577029 -0.161557
v 0.395062 0.577029 0.161557
v 0.230358 0.564914 0.161557
v 0.230358 0.564914 -0.161557
v 0.332496 0.678838 -0.161557
v 0.332496 0.678838 0.161557
v 0.169001 0.622735 0.161557
v 0.169001 0.622735 -0.161557
v 0.245667 0.755493 -0.161557
v 0.245667 0.755493 0.161557
v 0.052166 0.695484 0.161557
v 0.052166 0.695484 -0.161557
v 0.162072 0.801860 -0.161557
v 0.162072 0.801860 0.161557
v -0.034764 0.792388 0.161557
v -0.034764 0.792388 -0.161557
v 0.105091 0.854691 -0.161557
v 0.105091 0.854691 0.161557
v -0.081180 0.910430 0.161557
v -0.081180 0.910430 -0.161557
v 0.072864 0.909047 -0.161557
v 0.072864 0.909047 0.161557
v -0.050960 0.910159 0.098171
v -0.050960 0.910159 -0.098171
v 0.042645 0.909318 -0.098171
v 0.042645 0.909318 0.098171
v -0.064677 0.949224 0.098171
v -0.064677 0.949224 -0.098171
v 0.028928 0.948384 -0.098171
v 0.028928 0.948384 0.098171
vn -0.0485 0.0610 -0.0000
vn -0.0000 -0.0000 -0.1616
vn 0.0485 -0.0610 -0.0000
vn -0.0000 -0.0000 0.1616
vn 0.1635 0.1302 -0.0000
vn -0.1310 -0.1437 -0.0000
vn -0.1389 -0.0321 -0.0000
vn 0.0599 -0.0517 -0.0000
vn 0.0795 -0.0343 -0.0000
vn -0.0369 0.0700 -0.0000
vn 0.1672 0.0864 -0.0000
vn -0.1566 -0.0607 -0.0000
vn 0.1698 0.1163 -0.0000
vn 0.1701 0.1143 -0.0000
vn -0.1701 -0.1143 -0.0000
vn -0.1705 -0.1099 -0.0000
vn 0.1656 0.1273 -0.0000
vn -0.1669 -0.1249 -0.0000
vn 0.1542 0.1379 -0.0000
vn 0.1600 0.1339 -0.0000
vn -0.1607 -0.1332 -0.0000
vn -0.1624 -0.1315 -0.0000
vn -0.1557 -0.1370 -0.0000
vn 0.1605 0.1334 -0.0000
vn 0.1283 0.1437 -0.0000
vn 0.1658 0.1269 -0.0000
vn -0.1680 -0.1224 -0.0000
vn 0.1684 0.1213 -0.0000
vn -0.1684 -0.1213 -0.0000
vt 0.375000 0.000000
vt 0.375000 1.000000
vt 0.625000 0.000000
vt 0.625000 1.000000
vt 0.375000 0.250000
vt 0.625000 0.250000
vt 0.375000 0.750000
vt 0.625000 0.750000
vt 0.375000 0.500000
vt 0.625000 0.500000
vt 0.125000 0.500000
vt 0.375000 0.250000
vt 0.125000 0.750000
vt 0.375000 0.000000
vt 0.375000 1.000000
vt 0.375000 0.500000
vt 0.375000 0.750000
vt 0.625000 1.000000
vt 0.625000 0.000000
vt 0.625000 0.250000
vt 0.625000 0.500000
vt 0.625000 0.750000
vt 0.625000 1.000000
vt 0.625000 0.000000
vt 0.625000 0.250000
vt 0.625000 0.500000
vt 0.625000 0.750000
vt 0.625000 0.000000
vt 0.625000 1.000000
vt 0.625000 0.250000
vt 0.625000 0.500000
vt 0.625000 0.750000
vt 0.625000 0.000000
vt 0.625000 1.000000
vt 0.625000 0.250000
vt 0.625000 0.500000
vt 0.625000 0.750000
vt 0.625000 1.000000
vt 0.625000 0.000000
vt 0.625000 0.250000
vt 0.625000 0.500000
vt 0.625000 0.750000
vt 0.625000 1.000000
vt 0.625000 0.000000
vt 0.625000 0.250000
vt 0.625000 0.500000
vt 0.625000 0.750000
vt 0.625000 0.000000
vt 0.625000 1.000000
vt 0.625000 0.250000
vt 0.625000 0.500000
vt 0.625000 0.750000
vt 0.625000 0.000000
vt 0.625000 1.000000
vt 0.625000 0.250000
vt 0.625000 0.500000
vt 0.625000 0.750000
vt 0.625000 1.000000
vt 0.625000 0.000000
vt 0.625000 0.250000
vt 0.625000 0.500000
vt 0.625000 0.750000
vt 0.625000 1.000000
vt 0.625000 0.000000
vt 0.625000 0.250000
vt 0.625000 0.500000
vt 0.625000 0.750000
vt 0.625000 1.000000
vt 0.625000 0.000000
vt 0.625000 0.250000
vt 0.625000 0.500000
vt 0.625000 0.750000
vt 0.625000 1.000000
vt 0.875000 0.750000
vt 0.625000 0.000000
vt 0.875000 0.500000
vt 0.625000 0.250000
vt 0.625000 0.500000
vt 0.625000 0.750000
s 0
f 1/1/1 2/3/1 4/6/1 3/5/1
f 3/5/2 4/6/2 8/10/2 7/9/2
f 7/9/3 8/10/3 6/8/3 5/7/3
f 5/7/4 6/8/4 2/4/4 1/2/4
f 3/5/2 7/9/2 11/16/2 9/12/2
f 6/8/5 8/10/5 15/21/5 16/22/5
f 9/11/6 11/16/6 12/17/6 10/13/6
f 1/1/7 3/5/7 9/12/7 10/14/7
f 7/9/8 5/7/8 12/17/8 11/16/8
f 5/7/4 1/2/4 10/15/4 12/17/4
f 13/18/4 16/22/4 20/27/4 17/23/4
f 4/6/5 2/3/5 13/19/5 14/20/5
f 2/4/5 6/8/5 16/22/5 13/18/5
f 8/10/5 4/6/5 14/20/5 15/21/5
f 17/23/4 20/27/4 24/32/4 21/29/4
f 15/21/2 14/20/2 18/25/2 19/26/2
f 16/22/9 15/21/9 19/26/9 20/27/9
f 14/20/10 13/19/10 17/24/10 18/25/10
f 23/31/2 22/30/2 26/35/2 27/36/2
f 19/26/2 18/25/2 22/30/2 23/31/2
f 20/27/11 19/26/11 23/31/11 24/32/11
f 18/25/12 17/24/12 21/28/12 22/30/12
f 28/37/13 27/36/13 31/41/13 32/42/13
f 24/32/14 23/31/14 27/36/14 28/37/14
f 22/30/15 21/28/15 25/33/15 26/35/15
f 21/29/4 24/32/4 28/37/4 25/34/4
f 29/38/4 32/42/4 36/47/4 33/43/4
f 26/35/16 25/33/16 29/39/16 30/40/16
f 25/34/4 28/37/4 32/42/4 29/38/4
f 27/36/2 26/35/2 30/40/2 31/41/2
f 33/43/4 36/47/4 40/52/4 37/49/4
f 31/41/2 30/40/2 34/45/2 35/46/2
f 32/42/17 31/41/17 35/46/17 36/47/17
f 30/40/18 29/39/18 33/44/18 34/45/18
f 40/52/19 39/51/19 43/56/19 44/57/19
f 35/46/2 34/45/2 38/50/2 39/51/2
f 36/47/20 35/46/20 39/51/20 40/52/20
f 34/45/21 33/44/21 37/48/21 38/50/21
f 42/55/22 41/53/22 45/59/22 46/60/22
f 38/50/23 37/48/23 41/53/23 42/55/23
f 37/49/4 40/52/4 44/57/4 41/54/4
f 39/51/2 38/50/2 42/55/2 43/56/2
f 45/58/4 48/62/4 52/67/4 49/63/4
f 41/54/4 44/57/4 48/62/4 45/58/4
f 43/56/2 42/55/2 46/60/2 47/61/2
f 44/57/24 43/56/24 47/61/24 48/62/24
f 49/63/25 52/67/25 56/72/25 53/68/25
f 47/61/2 46/60/2 50/65/2 51/66/2
f 48/62/26 47/61/26 51/66/26 52/67/26
f 46/60/27 45/59/27 49/64/27 50/65/27
f 53/68/4 56/72/4 60/79/4 57/73/4
f 51/66/25 50/65/25 54/70/25 55/71/25
f 52/67/25 51/66/25 55/71/25 56/72/25
f 50/65/25 49/64/25 53/69/25 54/70/25
f 59/78/25 58/76/25 57/74/25 60/79/25
f 55/71/2 54/70/2 58/77/2 59/78/2
f 56/72/28 55/71/28 59/78/28 60/79/28
f 54/70/29 53/69/29 57/75/29 58/77/29
