# Blender v2.82 (sub 7) OBJ File: 'WallE.blend'
# www.blender.org
mtllib neck.mtl
o Cube.001_Cube.008
v -0.332551 2.064778 2.140552
v -0.005492 2.325105 2.140552
v -0.332551 2.064778 1.817438
v -0.005492 2.325105 1.817438
v -0.235521 1.942876 2.140552
v 0.091538 2.203203 2.140552
v -0.235521 1.942876 1.817438
v 0.091538 2.203203 1.817438
v -0.450276 1.898170 1.817438
v -0.450276 1.898170 2.140552
v -0.296265 1.891868 1.817438
v -0.296265 1.891868 2.140552
v -0.005492 2.325105 2.140552
v -0.005492 2.325105 1.817438
v 0.091538 2.203203 1.817438
v 0.091538 2.203203 2.140552
v 0.124038 2.422742 2.140552
v 0.124038 2.422742 1.817438
v 0.268772 2.367135 1.817438
v 0.268772 2.367135 2.140552
v 0.157645 2.487401 2.140552
v 0.157645 2.487401 1.817438
v 0.310028 2.507317 1.817438
v 0.310028 2.507317 2.140552
v 0.143865 2.580929 2.140552
v 0.143865 2.580929 1.817438
v 0.296248 2.600845 1.817438
v 0.296248 2.600845 2.140552
v 0.141213 2.635996 2.140552
v 0.141213 2.635996 1.817438
v 0.274556 2.711020 1.817438
v 0.274556 2.711020 2.140552
v 0.109851 2.698905 2.140552
v 0.109851 2.698905 1.817438
v 0.211990 2.812829 1.817438
v 0.211990 2.812829 2.140552
v 0.048494 2.756726 2.140552
v 0.048494 2.756726 1.817438
v 0.125160 2.889483 1.817438
v 0.125160 2.889483 2.140552
v -0.068340 2.829474 2.140552
v -0.068340 2.829474 1.817438
v 0.041565 2.935851 1.817438
v 0.041565 2.935851 2.140552
v -0.155270 2.926379 2.140552
v -0.155270 2.926379 1.817438
v -0.015415 2.988682 1.817438
v -0.015415 2.988682 2.140552
v -0.201686 3.044420 2.140552
v -0.201686 3.044420 1.817438
v -0.047642 3.043037 1.817438
v -0.047642 3.043037 2.140552
v -0.171467 3.044149 2.077166
v -0.171467 3.044149 1.880824
v -0.077862 3.043308 1.880824
v -0.077862 3.043308 2.077166
v -0.185183 3.083215 2.077166
v -0.185183 3.083215 1.880824
v -0.091578 3.082374 1.880824
v -0.091578 3.082374 2.077166
vt 0.375000 0.000000
vt 0.625000 0.000000
vt 0.625000 0.250000
vt 0.375000 0.250000
vt 0.625000 0.500000
vt 0.375000 0.500000
vt 0.625000 0.750000
vt 0.375000 0.750000
vt 0.625000 1.000000
vt 0.375000 1.000000
vt 0.375000 0.500000
vt 0.375000 0.250000
vt 0.625000 0.500000
vt 0.625000 0.750000
vt 0.125000 0.500000
vt 0.375000 0.750000
vt 0.125000 0.750000
vt 0.375000 0.000000
vt 0.375000 1.000000
vt 0.625000 1.000000
vt 0.625000 0.750000
vt 0.625000 1.000000
vt 0.625000 0.000000
vt 0.625000 0.250000
vt 0.625000 0.750000
vt 0.625000 1.000000
vt 0.625000 0.250000
vt 0.625000 0.500000
vt 0.625000 0.000000
vt 0.625000 0.500000
vt 0.625000 0.250000
vt 0.625000 0.250000
vt 0.625000 0.500000
vt 0.625000 0.000000
vt 0.625000 0.750000
vt 0.625000 0.500000
vt 0.625000 0.750000
vt 0.625000 0.000000
vt 0.625000 1.000000
vt 0.625000 1.000000
vt 0.625000 0.750000
vt 0.625000 1.000000
vt 0.625000 0.000000
vt 0.625000 0.250000
vt 0.625000 0.750000
vt 0.625000 1.000000
vt 0.625000 0.250000
vt 0.625000 0.500000
vt 0.625000 0.000000
vt 0.625000 0.500000
vt 0.625000 0.500000
vt 0.625000 0.750000
vt 0.625000 0.250000
vt 0.625000 0.000000
vt 0.625000 0.250000
vt 0.625000 0.000000
vt 0.625000 0.000000
vt 0.625000 0.250000
vt 0.625000 1.000000
vt 0.625000 1.000000
vt 0.625000 0.750000
vt 0.625000 0.750000
vt 0.625000 1.000000
vt 0.625000 0.500000
vt 0.625000 0.750000
vt 0.625000 1.000000
vt 0.625000 0.250000
vt 0.625000 0.500000
vt 0.625000 0.000000
vt 0.625000 0.750000
vt 0.625000 1.000000
vt 0.625000 0.250000
vt 0.625000 0.500000
vt 0.625000 0.000000
vt 0.625000 0.500000
vt 0.875000 0.500000
vt 0.875000 0.750000
vt 0.625000 0.250000
vt 0.625000 0.000000
vn -0.6228 0.7824 0.0000
vn -0.0000 0.0000 -1.0000
vn 0.6228 -0.7824 0.0000
vn 0.0000 0.0000 1.0000
vn -0.0409 -0.9992 0.0000
vn -0.8167 0.5771 0.0000
vn 0.6431 -0.7658 0.0000
vn 0.6790 -0.7341 0.0000
vn -0.6019 0.7985 0.0000
vn 0.9593 -0.2823 0.0000
vn -0.8873 0.4612 0.0000
vn 0.9812 0.1932 0.0000
vn 0.9893 0.1458 0.0000
vn -0.9893 -0.1458 0.0000
vn -0.9988 -0.0481 0.0000
vn 0.8520 0.5236 0.0000
vn -0.8950 -0.4462 0.0000
vn 0.4850 0.8745 0.0000
vn 0.6618 0.7497 0.0000
vn -0.6858 -0.7278 0.0000
vn -0.7444 -0.6678 0.0000
vn -0.5286 -0.8489 0.0000
vn 0.6799 0.7333 0.0000
vn 0.0090 1.0000 0.0000
vn 0.8602 0.5100 0.0000
vn -0.9306 -0.3659 0.0000
vn 0.9435 0.3313 0.0000
vn -0.9435 -0.3313 0.0000
usemtl None
s off
f 1/1/1 2/2/1 4/3/1 3/4/1
f 3/4/2 4/3/2 8/5/2 7/6/2
f 7/6/3 8/5/3 6/7/3 5/8/3
f 5/8/4 6/7/4 2/9/4 1/10/4
f 3/4/2 7/6/2 11/11/2 9/12/2
f 6/7/4 8/5/4 15/13/4 16/14/4
f 9/15/5 11/11/5 12/16/5 10/17/5
f 1/1/6 3/4/6 9/12/6 10/18/6
f 7/6/7 5/8/7 12/16/7 11/11/7
f 5/8/4 1/10/4 10/19/4 12/16/4
f 13/20/4 16/14/4 20/21/4 17/22/4
f 4/3/4 2/2/4 13/23/4 14/24/4
f 2/9/4 6/7/4 16/14/4 13/20/4
f 8/5/4 4/3/4 14/24/4 15/13/4
f 17/22/4 20/21/4 24/25/4 21/26/4
f 15/13/2 14/24/2 18/27/2 19/28/2
f 16/14/8 15/13/8 19/28/8 20/21/8
f 14/24/9 13/23/9 17/29/9 18/27/9
f 23/30/2 22/31/2 26/32/2 27/33/2
f 19/28/2 18/27/2 22/31/2 23/30/2
f 20/21/10 19/28/10 23/30/10 24/25/10
f 18/27/11 17/29/11 21/34/11 22/31/11
f 28/35/12 27/33/12 31/36/12 32/37/12
f 24/25/13 23/30/13 27/33/13 28/35/13
f 22/31/14 21/34/14 25/38/14 26/32/14
f 21/26/4 24/25/4 28/35/4 25/39/4
f 29/40/4 32/37/4 36/41/4 33/42/4
f 26/32/15 25/38/15 29/43/15 30/44/15
f 25/39/4 28/35/4 32/37/4 29/40/4
f 27/33/2 26/32/2 30/44/2 31/36/2
f 33/42/4 36/41/4 40/45/4 37/46/4
f 31/36/2 30/44/2 34/47/2 35/48/2
f 32/37/16 31/36/16 35/48/16 36/41/16
f 30/44/17 29/43/17 33/49/17 34/47/17
f 40/45/18 39/50/18 43/51/18 44/52/18
f 35/48/2 34/47/2 38/53/2 39/50/2
f 36/41/19 35/48/19 39/50/19 40/45/19
f 34/47/20 33/49/20 37/54/20 38/53/20
f 42/55/21 41/56/21 45/57/21 46/58/21
f 38/53/22 37/54/22 41/56/22 42/55/22
f 37/46/4 40/45/4 44/52/4 41/59/4
f 39/50/2 38/53/2 42/55/2 43/51/2
f 45/60/4 48/61/4 52/62/4 49/63/4
f 41/59/4 44/52/4 48/61/4 45/60/4
f 43/51/2 42/55/2 46/58/2 47/64/2
f 44/52/23 43/51/23 47/64/23 48/61/23
f 49/63/24 52/62/24 56/65/24 53/66/24
f 47/64/2 46/58/2 50/67/2 51/68/2
f 48/61/25 47/64/25 51/68/25 52/62/25
f 46/58/26 45/57/26 49/69/26 50/67/26
f 53/66/4 56/65/4 60/70/4 57/71/4
f 51/68/24 50/67/24 54/72/24 55/73/24
f 52/62/24 51/68/24 55/73/24 56/65/24
f 50/67/24 49/69/24 53/74/24 54/72/24
f 59/75/24 58/76/24 57/77/24 60/70/24
f 55/73/2 54/72/2 58/78/2 59/75/2
f 56/65/27 55/73/27 59/75/27 60/70/27
f 54/72/28 53/74/28 57/79/28 58/78/28
